<svg width="37" height="36" viewBox="0 0 37 36" fill="none" xmlns="http://www.w3.org/2000/svg">
<path fill-rule="evenodd" clip-rule="evenodd" d="M19.7145 23.0587C20.1553 23.4117 20.6446 23.7013 21.1684 23.9183C21.8963 24.2198 22.6765 24.375 23.4645 24.375C24.2524 24.375 25.0326 24.2198 25.7606 23.9183C26.4885 23.6167 27.15 23.1748 27.7071 22.6176C28.2643 22.0605 28.7062 21.3991 29.0078 20.6711C29.3093 19.9431 29.4645 19.1629 29.4645 18.375C29.4645 17.5871 29.3093 16.8069 29.0078 16.0789C28.7062 15.3509 28.2643 14.6895 27.7071 14.1324C27.4759 13.9011 27.2267 13.6897 26.9622 13.5C27.2267 13.3103 27.4759 13.0989 27.7071 12.8676C28.2643 12.3105 28.7062 11.6491 29.0078 10.9211C29.3093 10.1931 29.4645 9.41293 29.4645 8.625C29.4645 7.83707 29.3093 7.05685 29.0078 6.3289C28.7062 5.60095 28.2643 4.93951 27.7071 4.38236C27.15 3.82521 26.4885 3.38325 25.7606 3.08172C25.0326 2.78019 24.2524 2.625 23.4645 2.625H13.7145C12.1232 2.625 10.5971 3.25714 9.47184 4.38236C8.34662 5.50758 7.71448 7.0337 7.71448 8.625C7.71448 10.2163 8.34662 11.7424 9.47184 12.8676C9.70403 13.0998 9.95329 13.311 10.2167 13.5C9.95329 13.689 9.70403 13.9002 9.47184 14.1324C8.34662 15.2576 7.71448 16.7837 7.71448 18.375C7.71448 19.9663 8.34662 21.4924 9.47184 22.6176C9.70403 22.8498 9.95329 23.061 10.2167 23.25C9.95329 23.439 9.70403 23.6502 9.47184 23.8824C8.34662 25.0076 7.71448 26.5337 7.71448 28.125C7.71448 29.7163 8.34662 31.2424 9.47184 32.3676C10.5971 33.4929 12.1232 34.125 13.7145 34.125C15.3058 34.125 16.8319 33.4929 17.9571 32.3676C19.0823 31.2424 19.7145 29.7163 19.7145 28.125V23.0587ZM13.7145 4.875C12.7199 4.875 11.7661 5.27009 11.0628 5.97335C10.3596 6.67661 9.96448 7.63044 9.96448 8.625C9.96448 9.61956 10.3596 10.5734 11.0628 11.2766C11.7661 11.9799 12.7199 12.375 13.7145 12.375H17.4645V4.875H13.7145ZM17.4645 24.375H13.7145C12.7199 24.375 11.7661 24.7701 11.0628 25.4733C10.3596 26.1766 9.96448 27.1304 9.96448 28.125C9.96448 29.1196 10.3596 30.0734 11.0628 30.7767C11.7661 31.4799 12.7199 31.875 13.7145 31.875C14.709 31.875 15.6629 31.4799 16.3661 30.7767C17.0694 30.0734 17.4645 29.1196 17.4645 28.125V24.375ZM13.7145 14.625C12.7199 14.625 11.7661 15.0201 11.0628 15.7233C10.3596 16.4266 9.96448 17.3804 9.96448 18.375C9.96448 19.3696 10.3596 20.3234 11.0628 21.0267C11.7661 21.7299 12.7199 22.125 13.7145 22.125H17.4645V14.625H13.7145ZM19.7145 18.375C19.7145 18.8675 19.8115 19.3551 19.9999 19.8101C20.1884 20.265 20.4646 20.6784 20.8128 21.0267C21.161 21.3749 21.5744 21.6511 22.0294 21.8395C22.4844 22.028 22.972 22.125 23.4645 22.125C23.9569 22.125 24.4446 22.028 24.8995 21.8395C25.3545 21.6511 25.7679 21.3749 26.1161 21.0267C26.4643 20.6784 26.7406 20.265 26.929 19.8101C27.1175 19.3551 27.2145 18.8675 27.2145 18.375C27.2145 17.8825 27.1175 17.3949 26.929 16.9399C26.7406 16.485 26.4643 16.0716 26.1161 15.7233C25.7679 15.3751 25.3545 15.0989 24.8995 14.9105C24.4446 14.722 23.9569 14.625 23.4645 14.625C22.972 14.625 22.4844 14.722 22.0294 14.9105C21.5744 15.0989 21.161 15.3751 20.8128 15.7233C20.4646 16.0716 20.1884 16.485 19.9999 16.9399C19.8115 17.3949 19.7145 17.8825 19.7145 18.375ZM23.4645 12.375C23.9569 12.375 24.4446 12.278 24.8995 12.0895C25.3545 11.9011 25.7679 11.6249 26.1161 11.2766C26.4643 10.9284 26.7406 10.515 26.929 10.0601C27.1175 9.60509 27.2145 9.11746 27.2145 8.625C27.2145 8.13254 27.1175 7.64491 26.929 7.18994C26.7406 6.73496 26.4643 6.32157 26.1161 5.97335C25.7679 5.62513 25.3545 5.34891 24.8995 5.16045C24.4446 4.972 23.9569 4.875 23.4645 4.875H19.7145V12.375H23.4645Z" fill="#292C31" stroke="#292C31" stroke-width="0.4" stroke-linecap="round" stroke-linejoin="round"/>
</svg>
