<svg width="36" height="36" viewBox="0 0 36 36" fill="none" xmlns="http://www.w3.org/2000/svg">
<path fill-rule="evenodd" clip-rule="evenodd" d="M19.125 23.0587C19.5658 23.4117 20.0551 23.7013 20.5789 23.9183C21.3069 24.2198 22.0871 24.375 22.875 24.375C23.6629 24.375 24.4431 24.2198 25.1711 23.9183C25.8991 23.6167 26.5605 23.1748 27.1176 22.6176C27.6748 22.0605 28.1167 21.3991 28.4183 20.6711C28.7198 19.9431 28.875 19.1629 28.875 18.375C28.875 17.5871 28.7198 16.8069 28.4183 16.0789C28.1167 15.3509 27.6748 14.6895 27.1176 14.1324C26.8864 13.9011 26.6372 13.6897 26.3728 13.5C26.6372 13.3103 26.8864 13.0989 27.1176 12.8676C27.6748 12.3105 28.1167 11.6491 28.4183 10.9211C28.7198 10.1931 28.875 9.41293 28.875 8.625C28.875 7.83707 28.7198 7.05685 28.4183 6.3289C28.1167 5.60095 27.6748 4.93951 27.1176 4.38236C26.5605 3.82521 25.8991 3.38325 25.1711 3.08172C24.4431 2.78019 23.6629 2.625 22.875 2.625H13.125C11.5337 2.625 10.0076 3.25714 8.88236 4.38236C7.75714 5.50758 7.125 7.0337 7.125 8.625C7.125 10.2163 7.75714 11.7424 8.88236 12.8676C9.11455 13.0998 9.36381 13.311 9.62719 13.5C9.36381 13.689 9.11455 13.9002 8.88236 14.1324C7.75714 15.2576 7.125 16.7837 7.125 18.375C7.125 19.9663 7.75714 21.4924 8.88236 22.6176C9.11455 22.8498 9.36381 23.061 9.62719 23.25C9.36381 23.439 9.11455 23.6502 8.88236 23.8824C7.75714 25.0076 7.125 26.5337 7.125 28.125C7.125 29.7163 7.75714 31.2424 8.88236 32.3676C10.0076 33.4929 11.5337 34.125 13.125 34.125C14.7163 34.125 16.2424 33.4929 17.3676 32.3676C18.4929 31.2424 19.125 29.7163 19.125 28.125V23.0587ZM13.125 4.875C12.1304 4.875 11.1766 5.27009 10.4733 5.97335C9.77009 6.67661 9.375 7.63044 9.375 8.625C9.375 9.61956 9.77009 10.5734 10.4733 11.2766C11.1766 11.9799 12.1304 12.375 13.125 12.375H16.875V4.875H13.125ZM16.875 24.375H13.125C12.1304 24.375 11.1766 24.7701 10.4733 25.4733C9.77009 26.1766 9.375 27.1304 9.375 28.125C9.375 29.1196 9.77009 30.0734 10.4733 30.7766C11.1766 31.4799 12.1304 31.875 13.125 31.875C14.1196 31.875 15.0734 31.4799 15.7766 30.7766C16.4799 30.0734 16.875 29.1196 16.875 28.125V24.375ZM13.125 14.625C12.1304 14.625 11.1766 15.0201 10.4733 15.7233C9.77009 16.4266 9.375 17.3804 9.375 18.375C9.375 19.3696 9.77009 20.3234 10.4733 21.0266C11.1766 21.7299 12.1304 22.125 13.125 22.125H16.875V14.625H13.125ZM19.125 18.375C19.125 18.8675 19.222 19.3551 19.4105 19.8101C19.5989 20.265 19.8751 20.6784 20.2233 21.0266C20.5716 21.3749 20.985 21.6511 21.4399 21.8395C21.8949 22.028 22.3825 22.125 22.875 22.125C23.3675 22.125 23.8551 22.028 24.3101 21.8395C24.765 21.6511 25.1784 21.3749 25.5266 21.0266C25.8749 20.6784 26.1511 20.265 26.3395 19.8101C26.528 19.3551 26.625 18.8675 26.625 18.375C26.625 17.8825 26.528 17.3949 26.3395 16.9399C26.1511 16.485 25.8749 16.0716 25.5266 15.7233C25.1784 15.3751 24.765 15.0989 24.3101 14.9105C23.8551 14.722 23.3675 14.625 22.875 14.625C22.3825 14.625 21.8949 14.722 21.4399 14.9105C20.985 15.0989 20.5716 15.3751 20.2233 15.7233C19.8751 16.0716 19.5989 16.485 19.4105 16.9399C19.222 17.3949 19.125 17.8825 19.125 18.375ZM22.875 12.375C23.3675 12.375 23.8551 12.278 24.3101 12.0895C24.765 11.9011 25.1784 11.6249 25.5266 11.2766C25.8749 10.9284 26.1511 10.515 26.3395 10.0601C26.528 9.60509 26.625 9.11746 26.625 8.625C26.625 8.13254 26.528 7.64491 26.3395 7.18994C26.1511 6.73496 25.8749 6.32157 25.5266 5.97335C25.1784 5.62513 24.765 5.34891 24.3101 5.16045C23.8551 4.972 23.3675 4.875 22.875 4.875H19.125V12.375H22.875Z" fill="#EFEFEF" fill-opacity="0.5" stroke="#EFEFEF" stroke-opacity="0.5" stroke-width="0.4" stroke-linecap="round" stroke-linejoin="round"/>
</svg>
