<svg width="36" height="36" viewBox="0 0 36 36" fill="none" xmlns="http://www.w3.org/2000/svg">
<path d="M24 10.5C24 9.67158 24.6716 9.00001 25.5 9.00001C26.3285 9.00001 27 9.67158 27 10.5C27 11.3284 26.3285 12 25.5 12C24.6716 12 24 11.3284 24 10.5Z" fill="#EFEFEF" fill-opacity="0.5"/>
<path fill-rule="evenodd" clip-rule="evenodd" d="M18 10.875C14.065 10.875 10.875 14.065 10.875 18C10.875 21.935 14.065 25.125 18 25.125C21.9351 25.125 25.125 21.935 25.125 18C25.125 14.065 21.9351 10.875 18 10.875ZM13.125 18C13.125 15.3076 15.3076 13.125 18 13.125C20.6924 13.125 22.875 15.3076 22.875 18C22.875 20.6924 20.6924 22.875 18 22.875C15.3076 22.875 13.125 20.6924 13.125 18Z" fill="#EFEFEF" fill-opacity="0.5"/>
<path fill-rule="evenodd" clip-rule="evenodd" d="M25.8874 4.24953C20.6876 3.66837 15.3125 3.66837 10.1127 4.24953C7.0946 4.58685 4.6581 6.96436 4.30327 9.99815C3.68146 15.3146 3.68146 20.6854 4.30327 26.0019C4.6581 29.0356 7.0946 31.4132 10.1127 31.7505C15.3125 32.3316 20.6875 32.3316 25.8874 31.7505C28.9055 31.4132 31.342 29.0356 31.6968 26.0019C32.3186 20.6854 32.3186 15.3146 31.6968 9.99815C31.342 6.96436 28.9055 4.58685 25.8874 4.24953ZM10.3626 6.48561C15.3964 5.92301 20.6037 5.92301 25.6375 6.48561C27.6327 6.7086 29.2309 8.28302 29.4621 10.2595C30.0636 15.4023 30.0636 20.5977 29.4621 25.7405C29.2309 27.717 27.6327 29.2914 25.6375 29.5144C20.6037 30.077 15.3964 30.077 10.3626 29.5144C8.36744 29.2914 6.76921 27.717 6.53804 25.7405C5.93654 20.5977 5.93654 15.4023 6.53804 10.2595C6.76921 8.28302 8.36744 6.7086 10.3626 6.48561Z" fill="#EFEFEF" fill-opacity="0.5"/>
<path d="M24 10.5C24 9.67158 24.6716 9.00001 25.5 9.00001C26.3285 9.00001 27 9.67158 27 10.5C27 11.3284 26.3285 12 25.5 12C24.6716 12 24 11.3284 24 10.5Z" stroke="#EFEFEF" stroke-opacity="0.5" stroke-width="0.4"/>
<path fill-rule="evenodd" clip-rule="evenodd" d="M18 10.875C14.065 10.875 10.875 14.065 10.875 18C10.875 21.935 14.065 25.125 18 25.125C21.9351 25.125 25.125 21.935 25.125 18C25.125 14.065 21.9351 10.875 18 10.875ZM13.125 18C13.125 15.3076 15.3076 13.125 18 13.125C20.6924 13.125 22.875 15.3076 22.875 18C22.875 20.6924 20.6924 22.875 18 22.875C15.3076 22.875 13.125 20.6924 13.125 18Z" stroke="#EFEFEF" stroke-opacity="0.5" stroke-width="0.4"/>
<path fill-rule="evenodd" clip-rule="evenodd" d="M25.8874 4.24953C20.6876 3.66837 15.3125 3.66837 10.1127 4.24953C7.0946 4.58685 4.6581 6.96436 4.30327 9.99815C3.68146 15.3146 3.68146 20.6854 4.30327 26.0019C4.6581 29.0356 7.0946 31.4132 10.1127 31.7505C15.3125 32.3316 20.6875 32.3316 25.8874 31.7505C28.9055 31.4132 31.342 29.0356 31.6968 26.0019C32.3186 20.6854 32.3186 15.3146 31.6968 9.99815C31.342 6.96436 28.9055 4.58685 25.8874 4.24953ZM10.3626 6.48561C15.3964 5.92301 20.6037 5.92301 25.6375 6.48561C27.6327 6.7086 29.2309 8.28302 29.4621 10.2595C30.0636 15.4023 30.0636 20.5977 29.4621 25.7405C29.2309 27.717 27.6327 29.2914 25.6375 29.5144C20.6037 30.077 15.3964 30.077 10.3626 29.5144C8.36744 29.2914 6.76921 27.717 6.53804 25.7405C5.93654 20.5977 5.93654 15.4023 6.53804 10.2595C6.76921 8.28302 8.36744 6.7086 10.3626 6.48561Z" stroke="#EFEFEF" stroke-opacity="0.5" stroke-width="0.4"/>
</svg>
