<svg width="37" height="36" viewBox="0 0 37 36" fill="none" xmlns="http://www.w3.org/2000/svg">
<path d="M24.5895 10.5C24.5895 9.67158 25.261 9.00001 26.0895 9.00001C26.9179 9.00001 27.5895 9.67158 27.5895 10.5C27.5895 11.3284 26.9179 12 26.0895 12C25.261 12 24.5895 11.3284 24.5895 10.5Z" fill="#292C31"/>
<path fill-rule="evenodd" clip-rule="evenodd" d="M18.5895 10.875C14.6544 10.875 11.4645 14.065 11.4645 18C11.4645 21.935 14.6544 25.125 18.5895 25.125C22.5245 25.125 25.7145 21.935 25.7145 18C25.7145 14.065 22.5245 10.875 18.5895 10.875ZM13.7145 18C13.7145 15.3076 15.8971 13.125 18.5895 13.125C21.2819 13.125 23.4645 15.3076 23.4645 18C23.4645 20.6924 21.2819 22.875 18.5895 22.875C15.8971 22.875 13.7145 20.6924 13.7145 18Z" fill="#292C31"/>
<path fill-rule="evenodd" clip-rule="evenodd" d="M26.4769 4.24953C21.277 3.66837 15.902 3.66837 10.7021 4.24953C7.68405 4.58685 5.24755 6.96436 4.89272 9.99815C4.27091 15.3146 4.27091 20.6854 4.89272 26.0019C5.24755 29.0356 7.68405 31.4132 10.7021 31.7505C15.902 32.3316 21.277 32.3316 26.4769 31.7505C29.4949 31.4132 31.9314 29.0356 32.2863 26.0019C32.9081 20.6854 32.9081 15.3146 32.2863 9.99815C31.9314 6.96436 29.4949 4.58685 26.4769 4.24953ZM10.952 6.48561C15.9858 5.92301 21.1932 5.92301 26.2269 6.48561C28.2221 6.7086 29.8203 8.28302 30.0515 10.2595C30.653 15.4023 30.653 20.5977 30.0515 25.7405C29.8203 27.717 28.2221 29.2914 26.2269 29.5144C21.1932 30.077 15.9858 30.077 10.952 29.5144C8.95689 29.2914 7.35865 27.717 7.12748 25.7405C6.52599 20.5977 6.52599 15.4023 7.12748 10.2595C7.35865 8.28302 8.95688 6.7086 10.952 6.48561Z" fill="#292C31"/>
<path d="M24.5895 10.5C24.5895 9.67158 25.261 9.00001 26.0895 9.00001C26.9179 9.00001 27.5895 9.67158 27.5895 10.5C27.5895 11.3284 26.9179 12 26.0895 12C25.261 12 24.5895 11.3284 24.5895 10.5Z" stroke="#292C31" stroke-width="0.4"/>
<path fill-rule="evenodd" clip-rule="evenodd" d="M18.5895 10.875C14.6544 10.875 11.4645 14.065 11.4645 18C11.4645 21.935 14.6544 25.125 18.5895 25.125C22.5245 25.125 25.7145 21.935 25.7145 18C25.7145 14.065 22.5245 10.875 18.5895 10.875ZM13.7145 18C13.7145 15.3076 15.8971 13.125 18.5895 13.125C21.2819 13.125 23.4645 15.3076 23.4645 18C23.4645 20.6924 21.2819 22.875 18.5895 22.875C15.8971 22.875 13.7145 20.6924 13.7145 18Z" stroke="#292C31" stroke-width="0.4"/>
<path fill-rule="evenodd" clip-rule="evenodd" d="M26.4769 4.24953C21.277 3.66837 15.902 3.66837 10.7021 4.24953C7.68405 4.58685 5.24755 6.96436 4.89272 9.99815C4.27091 15.3146 4.27091 20.6854 4.89272 26.0019C5.24755 29.0356 7.68405 31.4132 10.7021 31.7505C15.902 32.3316 21.277 32.3316 26.4769 31.7505C29.4949 31.4132 31.9314 29.0356 32.2863 26.0019C32.9081 20.6854 32.9081 15.3146 32.2863 9.99815C31.9314 6.96436 29.4949 4.58685 26.4769 4.24953ZM10.952 6.48561C15.9858 5.92301 21.1932 5.92301 26.2269 6.48561C28.2221 6.7086 29.8203 8.28302 30.0515 10.2595C30.653 15.4023 30.653 20.5977 30.0515 25.7405C29.8203 27.717 28.2221 29.2914 26.2269 29.5144C21.1932 30.077 15.9858 30.077 10.952 29.5144C8.95689 29.2914 7.35865 27.717 7.12748 25.7405C6.52599 20.5977 6.52599 15.4023 7.12748 10.2595C7.35865 8.28302 8.95688 6.7086 10.952 6.48561Z" stroke="#292C31" stroke-width="0.4"/>
</svg>
