<svg width="154" height="60" viewBox="0 0 154 60" fill="none" xmlns="http://www.w3.org/2000/svg">
<path d="M38.7456 1.95746C33.1297 1.91067 27.5114 3.59973 22.8523 6.7355C18.1933 9.87127 14.5133 14.4404 12.4425 19.6607C10.3716 24.881 9.91865 30.7302 11.1611 36.2071C12.4036 41.684 15.3362 46.7651 19.457 50.5808C25.1787 55.8789 33.1849 58.6204 40.9532 57.9416C48.7216 57.2628 56.131 53.1744 60.8471 46.9642C63.9737 42.8471 65.929 37.8505 66.4272 32.7049C66.9254 27.5592 65.9649 22.2803 63.6861 17.64C61.4074 12.9996 57.8174 9.01196 53.4409 6.26009C49.0645 3.50821 43.9151 2.00053 38.7456 1.95746Z" stroke="#292C31" stroke-width="3"/>
<path d="M115.707 1.95746C110.091 1.91067 104.472 3.59973 99.8134 6.7355C95.1543 9.87127 91.4744 14.4404 89.4035 19.6607C87.3327 24.881 86.8797 30.7302 88.1222 36.2071C89.3647 41.684 92.2973 46.7651 96.4181 50.5808C102.14 55.8789 110.146 58.6204 117.914 57.9416C125.683 57.2628 133.092 53.1744 137.808 46.9642C140.935 42.8471 142.89 37.8505 143.388 32.7049C143.886 27.5592 142.926 22.2803 140.647 17.64C138.368 12.9996 134.778 9.01196 130.402 6.26009C126.026 3.50821 120.876 2.00053 115.707 1.95746Z" stroke="#292C31" stroke-width="3"/>
<path d="M66.5668 28.6837C68.7409 26.4577 71.6499 24.9617 74.7252 24.4882C79.2165 23.7966 83.999 25.3697 87.2027 28.5925" stroke="#292C31" stroke-width="3"/>
<path d="M2 29.6182H8.87851" stroke="#292C31" stroke-width="3" stroke-linecap="round" stroke-linejoin="round"/>
<path d="M145.122 29.6182H152" stroke="#292C31" stroke-width="3" stroke-linecap="round" stroke-linejoin="round"/>
<path d="M24.9985 8.71342C24.4978 13.3829 17.2133 13.706 15.2491 22.4631C14.6292 30.6261 19.122 31.6449 21.7514 32.051C24.3678 32.455 29.4511 35.3255 25.8503 29.7874C24.0684 27.047 19.1259 26.844 20.7558 23.648C21.8469 21.5086 25.4326 25.9685 27.3814 24.2582C29.7791 22.1542 26.0025 20.0636 29.6384 19.7292C32.3699 19.4781 39.078 20.2735 37.9173 16.9208C36.6118 13.1499 29.2465 17.7297 29.769 12.8312C30.1531 9.23042 37.7669 12.0954 41.5049 9.77268C44.3125 4.16305 38.7839 4.24654 32.9687 6.81888C28.4412 7.06678 25.9141 1.9352 24.9985 8.71342V8.71342Z" stroke="#292C31" stroke-width="3" stroke-linecap="round" stroke-linejoin="round"/>
<path d="M47.7894 4.33295C47.7894 4.33295 45.6649 8.95127 46.7733 11.3528C47.8817 13.7543 49.6367 10.7062 51.2993 12.5536C52.9619 14.4009 51.3916 19.3887 53.6084 20.0352C55.8252 20.6818 56.7489 12.6459 59.4275 14.678C62.1062 16.7101 63.3069 22.8986 60.1665 24.1917C57.026 25.4849 51.4024 24.1074 52.5 28.9948C53.326 32.6723 60.1317 28.9644 60.3512 31.7658C60.8237 37.7956 54.9016 51.5784 54.9016 51.5784" stroke="#292C31" stroke-width="3" stroke-linecap="round" stroke-linejoin="round"/>
<path d="M37.352 56.5199C37.352 56.5199 32.0105 56.7746 30.6093 51.994C29.6847 48.8393 32.1256 46.7591 30.9326 44.2814C30.0032 42.3511 28.4315 41.5817 28.3925 39.6169C28.3576 37.8558 29.637 35.5457 28.8543 33.0588C28.2324 31.0829 32.0209 30.2194 32.7337 31.3962C35.2703 35.5842 35.7818 35.9222 38.6452 36.7535C41.5085 37.5848 46.3116 38.2314 45.7574 42.942C45.2483 47.2691 38.7375 44.5123 36.7978 49.4077C34.8581 54.3031 38.9223 56.797 38.9223 56.797L37.352 56.5199Z" stroke="#292C31" stroke-width="3" stroke-linecap="round" stroke-linejoin="round"/>
</svg>
