<svg width="154" height="60" viewBox="0 0 154 60" fill="none" xmlns="http://www.w3.org/2000/svg">
<g opacity="0.5">
<path d="M38.7456 2.00095C33.1297 1.95416 27.5114 3.64321 22.8523 6.77898C18.1933 9.91475 14.5133 14.4839 12.4425 19.7042C10.3716 24.9245 9.91865 30.7737 11.1611 36.2506C12.4036 41.7275 15.3362 46.8086 19.457 50.6243C25.1787 55.9224 33.1849 58.6639 40.9532 57.9851C48.7216 57.3063 56.131 53.2178 60.8471 47.0077C63.9737 42.8906 65.929 37.894 66.4272 32.7484C66.9254 27.6027 65.9649 22.3238 63.6861 17.6834C61.4074 13.0431 57.8174 9.05545 53.4409 6.30357C49.0645 3.5517 43.9151 2.04402 38.7456 2.00095Z" stroke="white" stroke-width="3"/>
<path d="M115.707 2.00095C110.091 1.95416 104.472 3.64321 99.8134 6.77898C95.1543 9.91475 91.4744 14.4839 89.4035 19.7042C87.3327 24.9245 86.8797 30.7737 88.1222 36.2506C89.3647 41.7275 92.2973 46.8086 96.4181 50.6243C102.14 55.9224 110.146 58.6639 117.914 57.9851C125.683 57.3063 133.092 53.2179 137.808 47.0077C140.935 42.8906 142.89 37.894 143.388 32.7484C143.886 27.6027 142.926 22.3238 140.647 17.6834C138.368 13.0431 134.778 9.05545 130.402 6.30357C126.026 3.5517 120.876 2.04402 115.707 2.00095Z" stroke="white" stroke-width="3"/>
<path d="M66.5668 28.7272C68.7409 26.5012 71.6499 25.0053 74.7252 24.5317C79.2165 23.8402 83.999 25.4133 87.2027 28.636" stroke="white" stroke-width="3"/>
<path d="M2 29.6616H8.87851" stroke="white" stroke-width="3" stroke-linecap="round" stroke-linejoin="round"/>
<path d="M145.122 29.6616H152" stroke="white" stroke-width="3" stroke-linecap="round" stroke-linejoin="round"/>
<path d="M24.9985 8.75688C24.4978 13.4264 17.2133 13.7494 15.2491 22.5065C14.6292 30.6696 19.122 31.6883 21.7514 32.0944C24.3678 32.4985 29.4511 35.3689 25.8503 29.8309C24.0684 27.0904 19.1259 26.8874 20.7558 23.6915C21.8469 21.5521 25.4326 26.0119 27.3814 24.3017C29.7791 22.1976 26.0025 20.107 29.6384 19.7727C32.3699 19.5215 39.078 20.317 37.9173 16.9642C36.6118 13.1933 29.2465 17.7731 29.769 12.8746C30.1531 9.27388 37.7669 12.1388 41.5049 9.81614C44.3125 4.20651 38.7839 4.28999 32.9687 6.86234C28.4412 7.11023 25.9141 1.97866 24.9985 8.75688V8.75688Z" stroke="white" stroke-width="3" stroke-linecap="round" stroke-linejoin="round"/>
<path d="M47.7894 4.37646C47.7894 4.37646 45.6649 8.99479 46.7733 11.3963C47.8817 13.7978 49.6367 10.7498 51.2993 12.5971C52.9619 14.4444 51.3916 19.4322 53.6084 20.0788C55.8252 20.7253 56.7489 12.6894 59.4275 14.7215C62.1062 16.7536 63.3069 22.9421 60.1665 24.2353C57.026 25.5284 51.4024 24.1509 52.5 29.0383C53.326 32.7158 60.1317 29.0079 60.3512 31.8093C60.8237 37.8391 54.9016 51.6219 54.9016 51.6219" stroke="white" stroke-width="3" stroke-linecap="round" stroke-linejoin="round"/>
<path d="M37.352 56.5633C37.352 56.5633 32.0105 56.818 30.6093 52.0374C29.6847 48.8827 32.1256 46.8025 30.9326 44.3248C30.0032 42.3945 28.4315 41.6251 28.3925 39.6602C28.3576 37.8992 29.637 35.5891 28.8543 33.1022C28.2324 31.1263 32.0209 30.2628 32.7337 31.4396C35.2703 35.6276 35.7818 35.9656 38.6452 36.7969C41.5085 37.6282 46.3116 38.2748 45.7574 42.9854C45.2483 47.3125 38.7375 44.5557 36.7978 49.4511C34.8581 54.3465 38.9223 56.8404 38.9223 56.8404L37.352 56.5633Z" stroke="white" stroke-width="3" stroke-linecap="round" stroke-linejoin="round"/>
</g>
</svg>
