<svg width="37" height="36" viewBox="0 0 37 36" fill="none" xmlns="http://www.w3.org/2000/svg">
<path fill-rule="evenodd" clip-rule="evenodd" d="M22.1671 23.1686C18.1917 26.3526 12.3725 26.102 8.68735 22.4168C4.73329 18.4628 4.73329 12.052 8.68735 8.0979C12.6414 4.14384 19.0522 4.14384 23.0063 8.0979C26.6914 11.7831 26.942 17.6022 23.7581 21.5776L31.4915 29.3111C31.9309 29.7504 31.9309 30.4627 31.4915 30.9021C31.0522 31.3414 30.3399 31.3414 29.9005 30.9021L22.1671 23.1686ZM10.2783 20.8258C7.20296 17.7504 7.20296 12.7643 10.2783 9.68889C13.3537 6.61351 18.3399 6.61351 21.4153 9.68889C24.4884 12.762 24.4906 17.7431 21.422 20.819C21.4198 20.8213 21.4175 20.8235 21.4152 20.8258C21.413 20.828 21.4107 20.8303 21.4085 20.8326C18.3326 23.9012 13.3515 23.8989 10.2783 20.8258Z" fill="#292C31" stroke="#292C31" stroke-width="0.4" stroke-linecap="round"/>
</svg>
