<svg width="37" height="36" viewBox="0 0 37 36" fill="none" xmlns="http://www.w3.org/2000/svg">
<path fill-rule="evenodd" clip-rule="evenodd" d="M9.27087 21.0294C9.33654 21.0515 9.40281 21.0672 9.46902 21.0769C9.54122 21.2465 9.63451 21.466 9.74335 21.7227C10.009 22.3492 10.3668 23.1964 10.7363 24.0803C11.4896 25.8828 12.2495 27.7409 12.4174 28.2728C12.6251 28.9302 12.8448 29.3773 13.0845 29.6824C13.2085 29.8402 13.3518 29.978 13.5196 30.0823C13.6041 30.1349 13.6933 30.178 13.7864 30.21C13.7905 30.2115 13.7946 30.2128 13.7987 30.2142C14.2787 30.3954 14.7164 30.3199 14.9904 30.2276C15.137 30.1783 15.2556 30.1186 15.3397 30.0703C15.3825 30.0456 15.4187 30.0226 15.4476 30.0032L15.4545 29.9986L19.6938 27.3549L24.5905 31.1091C24.6628 31.1645 24.7416 31.211 24.8251 31.2474C25.4134 31.5041 25.983 31.5936 26.5189 31.5204C27.0539 31.4474 27.4786 31.2226 27.7948 30.9697C28.1044 30.7219 28.3143 30.4445 28.445 30.2383C28.5118 30.1331 28.5619 30.04 28.5972 29.9686C28.615 29.9328 28.6293 29.9019 28.6403 29.8771L28.6545 29.8444L28.6598 29.8316L28.662 29.8261L28.663 29.8236L28.664 29.8212C28.6897 29.7569 28.7094 29.6903 28.7229 29.6224L33.1933 7.08411C33.2076 7.01203 33.2148 6.93872 33.2148 6.86524C33.2148 6.20522 32.9661 5.57761 32.3813 5.19677C31.8815 4.87128 31.3248 4.85727 30.9729 4.88397C30.5933 4.91278 30.2428 5.00648 30.0075 5.08136C29.8851 5.12032 29.7825 5.15792 29.7085 5.1866C29.6713 5.20102 29.6408 5.21338 29.6181 5.22282L29.601 5.23L4.53045 15.0648L4.5272 15.066C4.51122 15.0718 4.49071 15.0794 4.46634 15.0889C4.41779 15.1078 4.35274 15.1345 4.27677 15.1689C4.12859 15.2361 3.92072 15.341 3.70741 15.4871C3.36663 15.7205 2.58289 16.3596 2.71486 17.4146C2.82014 18.2562 3.39672 18.7731 3.748 19.0216C3.94089 19.1581 4.12414 19.2557 4.25759 19.3192C4.3195 19.3487 4.44805 19.4009 4.50382 19.4236L4.5179 19.4293L9.27087 21.0294ZM30.4784 7.3018L30.4749 7.30332C30.4624 7.30874 30.4499 7.31394 30.4372 7.31891L5.33617 17.1657C5.32306 17.1708 5.30986 17.1757 5.29657 17.1804L5.2826 17.1857C5.26654 17.1919 5.23951 17.2029 5.20557 17.2183C5.18633 17.227 5.16625 17.2365 5.14578 17.2467C5.17391 17.2625 5.20083 17.2763 5.22475 17.2877C5.24771 17.2986 5.26523 17.3061 5.27482 17.31L9.98876 18.897C10.075 18.9261 10.1555 18.9646 10.2293 19.011L25.7945 9.89922L25.809 9.8906C25.8204 9.88391 25.8353 9.8753 25.8531 9.86521C25.8885 9.84518 25.9372 9.81851 25.9951 9.78905C26.1031 9.73407 26.276 9.65245 26.4707 9.59228C26.6062 9.55038 27.0059 9.43235 27.4381 9.57095C27.7048 9.6565 27.981 9.84041 28.1606 10.152C28.2498 10.3068 28.2973 10.4622 28.3203 10.6046C28.3815 10.8288 28.3718 11.0502 28.324 11.2414C28.2208 11.6531 27.9315 11.9743 27.6683 12.22C27.4428 12.4306 24.5247 15.2444 21.646 18.022C20.2104 19.4072 18.7895 20.7787 17.7274 21.8039L17.0298 22.4773L25.8377 29.2301C26.0397 29.3024 26.1591 29.2987 26.2144 29.2911C26.2802 29.2822 26.3341 29.2568 26.3891 29.2128C26.4507 29.1635 26.5045 29.0971 26.5447 29.0336L26.5464 29.031L30.8821 7.17153C30.8177 7.18699 30.7527 7.20541 30.69 7.22537C30.6189 7.24798 30.5604 7.26951 30.5215 7.28456C30.5023 7.29201 30.4885 7.29766 30.481 7.30078L30.4784 7.3018ZM17.7865 25.8926L16.0293 24.5454L15.6035 27.254L17.7865 25.8926ZM14.4173 21.8721L16.1647 20.1851C17.2269 19.1598 18.6479 17.7882 20.0837 16.4029L21.5424 14.9955L11.7624 20.7207L11.8148 20.8444C12.0814 21.4731 12.4409 22.3241 12.8122 23.2126C13.0899 23.8771 13.3803 24.5767 13.6448 25.2244L14.0694 22.5238C14.1103 22.2634 14.2375 22.038 14.4173 21.8721Z" fill="#292C31" stroke="#292C31" stroke-width="0.4" stroke-linecap="round" stroke-linejoin="round"/>
</svg>
