<svg width="36" height="36" viewBox="0 0 36 36" fill="none" xmlns="http://www.w3.org/2000/svg">
<path fill-rule="evenodd" clip-rule="evenodd" d="M8.68143 21.0294C8.74709 21.0515 8.81336 21.0672 8.87957 21.0769C8.95177 21.2465 9.04507 21.466 9.1539 21.7227C9.41951 22.3492 9.7774 23.1964 10.1468 24.0803C10.9002 25.8828 11.6601 27.7409 11.8279 28.2728C12.0357 28.9302 12.2553 29.3773 12.4951 29.6824C12.619 29.8402 12.7624 29.978 12.9302 30.0823C13.0146 30.1349 13.1038 30.178 13.1969 30.21C13.201 30.2115 13.2051 30.2128 13.2092 30.2142C13.6893 30.3954 14.1269 30.3199 14.4009 30.2276C14.5475 30.1783 14.6661 30.1186 14.7502 30.0703C14.7931 30.0456 14.8293 30.0226 14.8582 30.0032L14.865 29.9986L19.1043 27.3549L24.0011 31.1091C24.0734 31.1645 24.1522 31.211 24.2356 31.2474C24.8239 31.5041 25.3936 31.5936 25.9295 31.5204C26.4644 31.4474 26.8892 31.2226 27.2053 30.9697C27.515 30.7219 27.7249 30.4445 27.8556 30.2383C27.9223 30.1331 27.9725 30.04 28.0078 29.9686C28.0256 29.9328 28.0398 29.9019 28.0508 29.8771L28.065 29.8444L28.0703 29.8316L28.0726 29.8261L28.0736 29.8236L28.0745 29.8212C28.1003 29.7569 28.12 29.6903 28.1335 29.6224L32.6038 7.08411C32.6181 7.01203 32.6253 6.93872 32.6253 6.86524C32.6253 6.20522 32.3766 5.57761 31.7919 5.19677C31.2921 4.87128 30.7353 4.85727 30.3835 4.88397C30.0039 4.91278 29.6533 5.00648 29.4181 5.08136C29.2957 5.12032 29.193 5.15792 29.119 5.1866C29.0818 5.20102 29.0513 5.21338 29.0286 5.22282L29.0116 5.23L3.941 15.0648L3.93776 15.066C3.92178 15.0718 3.90127 15.0794 3.87689 15.0889C3.82834 15.1078 3.7633 15.1345 3.68732 15.1689C3.53914 15.2361 3.33127 15.341 3.11796 15.4871C2.77718 15.7205 1.99344 16.3596 2.12541 17.4146C2.2307 18.2562 2.80727 18.7731 3.15855 19.0216C3.35144 19.1581 3.53469 19.2557 3.66814 19.3192C3.73006 19.3487 3.8586 19.4009 3.91438 19.4236L3.92845 19.4293L8.68143 21.0294ZM29.889 7.3018L29.8855 7.30332C29.873 7.30874 29.8604 7.31394 29.8477 7.31891L4.74672 17.1657C4.73362 17.1708 4.72041 17.1757 4.70712 17.1804L4.69315 17.1857C4.6771 17.1919 4.65006 17.2029 4.61612 17.2183C4.59688 17.227 4.57681 17.2365 4.55633 17.2467C4.58446 17.2625 4.61138 17.2763 4.6353 17.2877C4.65826 17.2986 4.67578 17.3061 4.68537 17.31L9.39931 18.897C9.48559 18.9261 9.56603 18.9646 9.63986 19.011L25.205 9.89922L25.2196 9.8906C25.2309 9.88391 25.2458 9.8753 25.2637 9.86521C25.2991 9.84518 25.3478 9.81851 25.4057 9.78905C25.5137 9.73407 25.6865 9.65245 25.8812 9.59228C26.0168 9.55038 26.4165 9.43235 26.8486 9.57095C27.1154 9.6565 27.3915 9.84041 27.5711 10.152C27.6603 10.3068 27.7079 10.4622 27.7309 10.6046C27.7921 10.8288 27.7824 11.0502 27.7345 11.2414C27.6314 11.6531 27.3421 11.9743 27.0788 12.22C26.8533 12.4306 23.9352 15.2444 21.0565 18.022C19.6209 19.4072 18.2 20.7787 17.1379 21.8039L16.4404 22.4773L25.2483 29.2301C25.4503 29.3024 25.5697 29.2987 25.6249 29.2911C25.6908 29.2822 25.7446 29.2568 25.7997 29.2128C25.8612 29.1635 25.9151 29.0971 25.9553 29.0336L25.9569 29.031L30.2926 7.17153C30.2283 7.18699 30.1632 7.20541 30.1005 7.22537C30.0295 7.24798 29.9709 7.26951 29.9321 7.28456C29.9129 7.29201 29.899 7.29766 29.8915 7.30078L29.889 7.3018ZM17.1971 25.8926L15.4398 24.5454L15.014 27.254L17.1971 25.8926ZM13.8278 21.8721L15.5753 20.1851C16.6374 19.1598 18.0585 17.7882 19.4942 16.4029L20.9529 14.9955L11.1729 20.7207L11.2254 20.8444C11.4919 21.4731 11.8514 22.3241 12.2228 23.2126C12.5005 23.8771 12.7909 24.5767 13.0554 25.2244L13.4799 22.5238C13.5208 22.2634 13.648 22.038 13.8278 21.8721Z" fill="#EFEFEF" fill-opacity="0.5" stroke="#EFEFEF" stroke-opacity="0.5" stroke-width="0.4" stroke-linecap="round" stroke-linejoin="round"/>
</svg>
