<svg width="37" height="36" viewBox="0 0 37 36" fill="none" xmlns="http://www.w3.org/2000/svg">
<mask id="path-1-outside-1_901_631" maskUnits="userSpaceOnUse" x="-0.0355225" y="6.125" width="37" height="24" fill="black">
<rect fill="white" x="-0.0355225" y="6.125" width="37" height="24"/>
<path fill-rule="evenodd" clip-rule="evenodd" d="M35.6969 25.2975C34.8811 23.6542 33.8061 22.1532 32.5132 20.8519C32.0733 20.3405 31.5574 19.8357 31.1547 19.4417L31.0984 19.3867C30.8907 19.1834 30.7191 19.0147 30.5786 18.8693C32.3464 16.4111 33.8594 13.7789 35.094 11.0133L35.1438 10.9018L35.1787 10.7846C35.3409 10.2403 35.5278 9.2052 34.8667 8.26976C34.1835 7.30288 33.0893 7.12851 32.3568 7.12851H28.9862C28.2835 7.0963 27.5877 7.28626 26.9982 7.67247C26.4042 8.06159 25.9498 8.62916 25.6998 9.29265C24.9739 11.0217 24.0656 12.6663 22.9916 14.199V10.249C22.9916 9.73845 22.9435 8.88434 22.3968 8.16344C21.7422 7.30028 20.7955 7.12851 20.1384 7.12851H14.7901C14.101 7.11258 13.4309 7.35896 12.9159 7.81888C12.3885 8.28989 12.0653 8.94781 12.0148 9.65314L12.01 9.71996V9.78695C12.01 10.5152 12.2986 11.0523 12.5291 11.3902C12.6323 11.5414 12.7427 11.6791 12.8124 11.7661L12.8285 11.7861C12.9029 11.8788 12.9525 11.9407 13.0024 12.0085C13.1334 12.1867 13.3218 12.4615 13.3752 13.1726V15.382C12.4531 13.8663 11.4805 11.8493 10.7486 9.69516L10.7374 9.6621L10.7249 9.62948C10.5425 9.15155 10.2498 8.45615 9.66359 7.924C8.9788 7.30232 8.16882 7.12851 7.4322 7.12851H4.01229C3.26707 7.12851 2.36868 7.30285 1.69833 8.00999C1.03914 8.70537 0.964478 9.5386 0.964478 9.98164V10.1813L1.00654 10.3765C1.95379 14.7732 3.90562 18.8905 6.70867 22.4065C7.97949 24.4106 9.7015 26.0904 11.7377 27.3113C13.8063 28.5517 16.1401 29.2828 18.5467 29.4446L18.6095 29.4488H18.6724C19.7612 29.4488 20.8962 29.3548 21.7496 28.7861C22.901 28.0188 22.9916 26.8404 22.9916 26.2532V24.5463C23.287 24.7852 23.6536 25.1067 24.1024 25.5388C24.645 26.0819 25.0769 26.5524 25.4475 26.9631L25.6452 27.183L25.6464 27.1842C25.9341 27.5046 26.2173 27.82 26.4752 28.0792C26.7993 28.4051 27.1989 28.7641 27.7012 29.0294C28.2451 29.3166 28.816 29.4465 29.4224 29.4465H32.8447C33.5656 29.4465 34.5998 29.276 35.3268 28.4331C36.1191 27.5145 36.0586 26.3886 35.8095 25.5795L35.7646 25.4339L35.6969 25.2975ZM27.1181 25.4559C26.7328 25.0289 26.2682 24.5226 25.6812 23.9356L25.6764 23.9308C23.6422 21.9697 22.6917 21.6279 22.0196 21.6279C21.6622 21.6279 21.2667 21.668 21.01 21.9878C20.8889 22.1387 20.8252 22.3207 20.7895 22.5105C20.7539 22.7 20.7416 22.9224 20.7416 23.1758V26.2532C20.7416 26.6354 20.6787 26.7959 20.5019 26.9137C20.2665 27.0706 19.7632 27.1978 18.685 27.1988C16.6385 27.0593 14.6541 26.4365 12.8947 25.3816C11.1317 24.3245 9.64511 22.8638 8.55728 21.1196L8.54545 21.1006L8.53143 21.0832C5.91954 17.8322 4.09952 14.0186 3.21493 9.94365C3.21972 9.74721 3.26228 9.63067 3.33124 9.55793C3.40229 9.48298 3.57446 9.37851 4.01229 9.37851H7.4322C7.81264 9.37851 8.00953 9.46127 8.15123 9.58991C8.31188 9.73575 8.45121 9.98341 8.62049 10.4256C9.45991 12.8946 10.5951 15.2035 11.67 16.9013C12.2073 17.7498 12.736 18.4561 13.2124 18.9553C13.4502 19.2044 13.6835 19.4109 13.906 19.5577C14.1215 19.6998 14.3657 19.8118 14.6168 19.8118C14.7494 19.8118 14.9044 19.7982 15.0537 19.7321C15.2142 19.661 15.3388 19.5425 15.4268 19.3838C15.5825 19.103 15.6252 18.687 15.6252 18.1421V13.0965L15.6244 13.0846C15.5467 11.8571 15.1761 11.1667 14.8152 10.6758C14.7361 10.5682 14.6581 10.471 14.5899 10.386L14.5712 10.3627C14.4962 10.2692 14.4366 10.1937 14.3876 10.1219C14.2978 9.99036 14.263 9.89863 14.2602 9.80034C14.2719 9.68367 14.3269 9.57541 14.4146 9.49708C14.5056 9.41578 14.6248 9.37346 14.7467 9.37851H20.1384C20.4475 9.37851 20.5516 9.45393 20.604 9.52302C20.678 9.62056 20.7416 9.82339 20.7416 10.249V17.042C20.7416 17.8489 21.1135 18.3951 21.6537 18.3951C22.2752 18.3951 22.7233 18.0179 23.5069 17.2344L23.5199 17.2213L23.5317 17.207C25.2878 15.0653 26.7232 12.6795 27.7915 10.1242L27.7983 10.105C27.8787 9.8792 28.0307 9.68588 28.2311 9.55455C28.4316 9.42322 28.6696 9.36108 28.9086 9.37762L28.9216 9.37851H32.3568C32.8253 9.37851 32.9794 9.49775 33.0292 9.56825C33.0823 9.64328 33.1191 9.80406 33.029 10.1194C31.7974 12.874 30.2743 15.4887 28.4865 17.9195L28.4753 17.9368C28.3016 18.2022 28.1113 18.4958 28.0837 18.8331C28.0541 19.1952 28.2109 19.5244 28.485 19.8772C28.6848 20.1727 29.0969 20.576 29.5149 20.9852L29.5543 21.0237C29.9926 21.4527 30.4674 21.9174 30.8486 22.3673L30.8588 22.3793L30.8699 22.3904C32.0061 23.5238 32.9509 24.8339 33.6675 26.2698C33.7819 26.6607 33.7118 26.8605 33.623 26.9635C33.5189 27.0842 33.2859 27.1965 32.8447 27.1965H29.4224C29.1552 27.1965 28.9489 27.1438 28.7518 27.0397C28.5465 26.9313 28.3352 26.7587 28.0704 26.4925C27.8571 26.278 27.6239 26.0186 27.3396 25.7021C27.2691 25.6237 27.1954 25.5416 27.1181 25.4559Z"/>
</mask>
<path fill-rule="evenodd" clip-rule="evenodd" d="M35.6969 25.2975C34.8811 23.6542 33.8061 22.1532 32.5132 20.8519C32.0733 20.3405 31.5574 19.8357 31.1547 19.4417L31.0984 19.3867C30.8907 19.1834 30.7191 19.0147 30.5786 18.8693C32.3464 16.4111 33.8594 13.7789 35.094 11.0133L35.1438 10.9018L35.1787 10.7846C35.3409 10.2403 35.5278 9.2052 34.8667 8.26976C34.1835 7.30288 33.0893 7.12851 32.3568 7.12851H28.9862C28.2835 7.0963 27.5877 7.28626 26.9982 7.67247C26.4042 8.06159 25.9498 8.62916 25.6998 9.29265C24.9739 11.0217 24.0656 12.6663 22.9916 14.199V10.249C22.9916 9.73845 22.9435 8.88434 22.3968 8.16344C21.7422 7.30028 20.7955 7.12851 20.1384 7.12851H14.7901C14.101 7.11258 13.4309 7.35896 12.9159 7.81888C12.3885 8.28989 12.0653 8.94781 12.0148 9.65314L12.01 9.71996V9.78695C12.01 10.5152 12.2986 11.0523 12.5291 11.3902C12.6323 11.5414 12.7427 11.6791 12.8124 11.7661L12.8285 11.7861C12.9029 11.8788 12.9525 11.9407 13.0024 12.0085C13.1334 12.1867 13.3218 12.4615 13.3752 13.1726V15.382C12.4531 13.8663 11.4805 11.8493 10.7486 9.69516L10.7374 9.6621L10.7249 9.62948C10.5425 9.15155 10.2498 8.45615 9.66359 7.924C8.9788 7.30232 8.16882 7.12851 7.4322 7.12851H4.01229C3.26707 7.12851 2.36868 7.30285 1.69833 8.00999C1.03914 8.70537 0.964478 9.5386 0.964478 9.98164V10.1813L1.00654 10.3765C1.95379 14.7732 3.90562 18.8905 6.70867 22.4065C7.97949 24.4106 9.7015 26.0904 11.7377 27.3113C13.8063 28.5517 16.1401 29.2828 18.5467 29.4446L18.6095 29.4488H18.6724C19.7612 29.4488 20.8962 29.3548 21.7496 28.7861C22.901 28.0188 22.9916 26.8404 22.9916 26.2532V24.5463C23.287 24.7852 23.6536 25.1067 24.1024 25.5388C24.645 26.0819 25.0769 26.5524 25.4475 26.9631L25.6452 27.183L25.6464 27.1842C25.9341 27.5046 26.2173 27.82 26.4752 28.0792C26.7993 28.4051 27.1989 28.7641 27.7012 29.0294C28.2451 29.3166 28.816 29.4465 29.4224 29.4465H32.8447C33.5656 29.4465 34.5998 29.276 35.3268 28.4331C36.1191 27.5145 36.0586 26.3886 35.8095 25.5795L35.7646 25.4339L35.6969 25.2975ZM27.1181 25.4559C26.7328 25.0289 26.2682 24.5226 25.6812 23.9356L25.6764 23.9308C23.6422 21.9697 22.6917 21.6279 22.0196 21.6279C21.6622 21.6279 21.2667 21.668 21.01 21.9878C20.8889 22.1387 20.8252 22.3207 20.7895 22.5105C20.7539 22.7 20.7416 22.9224 20.7416 23.1758V26.2532C20.7416 26.6354 20.6787 26.7959 20.5019 26.9137C20.2665 27.0706 19.7632 27.1978 18.685 27.1988C16.6385 27.0593 14.6541 26.4365 12.8947 25.3816C11.1317 24.3245 9.64511 22.8638 8.55728 21.1196L8.54545 21.1006L8.53143 21.0832C5.91954 17.8322 4.09952 14.0186 3.21493 9.94365C3.21972 9.74721 3.26228 9.63067 3.33124 9.55793C3.40229 9.48298 3.57446 9.37851 4.01229 9.37851H7.4322C7.81264 9.37851 8.00953 9.46127 8.15123 9.58991C8.31188 9.73575 8.45121 9.98341 8.62049 10.4256C9.45991 12.8946 10.5951 15.2035 11.67 16.9013C12.2073 17.7498 12.736 18.4561 13.2124 18.9553C13.4502 19.2044 13.6835 19.4109 13.906 19.5577C14.1215 19.6998 14.3657 19.8118 14.6168 19.8118C14.7494 19.8118 14.9044 19.7982 15.0537 19.7321C15.2142 19.661 15.3388 19.5425 15.4268 19.3838C15.5825 19.103 15.6252 18.687 15.6252 18.1421V13.0965L15.6244 13.0846C15.5467 11.8571 15.1761 11.1667 14.8152 10.6758C14.7361 10.5682 14.6581 10.471 14.5899 10.386L14.5712 10.3627C14.4962 10.2692 14.4366 10.1937 14.3876 10.1219C14.2978 9.99036 14.263 9.89863 14.2602 9.80034C14.2719 9.68367 14.3269 9.57541 14.4146 9.49708C14.5056 9.41578 14.6248 9.37346 14.7467 9.37851H20.1384C20.4475 9.37851 20.5516 9.45393 20.604 9.52302C20.678 9.62056 20.7416 9.82339 20.7416 10.249V17.042C20.7416 17.8489 21.1135 18.3951 21.6537 18.3951C22.2752 18.3951 22.7233 18.0179 23.5069 17.2344L23.5199 17.2213L23.5317 17.207C25.2878 15.0653 26.7232 12.6795 27.7915 10.1242L27.7983 10.105C27.8787 9.8792 28.0307 9.68588 28.2311 9.55455C28.4316 9.42322 28.6696 9.36108 28.9086 9.37762L28.9216 9.37851H32.3568C32.8253 9.37851 32.9794 9.49775 33.0292 9.56825C33.0823 9.64328 33.1191 9.80406 33.029 10.1194C31.7974 12.874 30.2743 15.4887 28.4865 17.9195L28.4753 17.9368C28.3016 18.2022 28.1113 18.4958 28.0837 18.8331C28.0541 19.1952 28.2109 19.5244 28.485 19.8772C28.6848 20.1727 29.0969 20.576 29.5149 20.9852L29.5543 21.0237C29.9926 21.4527 30.4674 21.9174 30.8486 22.3673L30.8588 22.3793L30.8699 22.3904C32.0061 23.5238 32.9509 24.8339 33.6675 26.2698C33.7819 26.6607 33.7118 26.8605 33.623 26.9635C33.5189 27.0842 33.2859 27.1965 32.8447 27.1965H29.4224C29.1552 27.1965 28.9489 27.1438 28.7518 27.0397C28.5465 26.9313 28.3352 26.7587 28.0704 26.4925C27.8571 26.278 27.6239 26.0186 27.3396 25.7021C27.2691 25.6237 27.1954 25.5416 27.1181 25.4559Z" fill="#292C31"/>
<path fill-rule="evenodd" clip-rule="evenodd" d="M35.6969 25.2975C34.8811 23.6542 33.8061 22.1532 32.5132 20.8519C32.0733 20.3405 31.5574 19.8357 31.1547 19.4417L31.0984 19.3867C30.8907 19.1834 30.7191 19.0147 30.5786 18.8693C32.3464 16.4111 33.8594 13.7789 35.094 11.0133L35.1438 10.9018L35.1787 10.7846C35.3409 10.2403 35.5278 9.2052 34.8667 8.26976C34.1835 7.30288 33.0893 7.12851 32.3568 7.12851H28.9862C28.2835 7.0963 27.5877 7.28626 26.9982 7.67247C26.4042 8.06159 25.9498 8.62916 25.6998 9.29265C24.9739 11.0217 24.0656 12.6663 22.9916 14.199V10.249C22.9916 9.73845 22.9435 8.88434 22.3968 8.16344C21.7422 7.30028 20.7955 7.12851 20.1384 7.12851H14.7901C14.101 7.11258 13.4309 7.35896 12.9159 7.81888C12.3885 8.28989 12.0653 8.94781 12.0148 9.65314L12.01 9.71996V9.78695C12.01 10.5152 12.2986 11.0523 12.5291 11.3902C12.6323 11.5414 12.7427 11.6791 12.8124 11.7661L12.8285 11.7861C12.9029 11.8788 12.9525 11.9407 13.0024 12.0085C13.1334 12.1867 13.3218 12.4615 13.3752 13.1726V15.382C12.4531 13.8663 11.4805 11.8493 10.7486 9.69516L10.7374 9.6621L10.7249 9.62948C10.5425 9.15155 10.2498 8.45615 9.66359 7.924C8.9788 7.30232 8.16882 7.12851 7.4322 7.12851H4.01229C3.26707 7.12851 2.36868 7.30285 1.69833 8.00999C1.03914 8.70537 0.964478 9.5386 0.964478 9.98164V10.1813L1.00654 10.3765C1.95379 14.7732 3.90562 18.8905 6.70867 22.4065C7.97949 24.4106 9.7015 26.0904 11.7377 27.3113C13.8063 28.5517 16.1401 29.2828 18.5467 29.4446L18.6095 29.4488H18.6724C19.7612 29.4488 20.8962 29.3548 21.7496 28.7861C22.901 28.0188 22.9916 26.8404 22.9916 26.2532V24.5463C23.287 24.7852 23.6536 25.1067 24.1024 25.5388C24.645 26.0819 25.0769 26.5524 25.4475 26.9631L25.6452 27.183L25.6464 27.1842C25.9341 27.5046 26.2173 27.82 26.4752 28.0792C26.7993 28.4051 27.1989 28.7641 27.7012 29.0294C28.2451 29.3166 28.816 29.4465 29.4224 29.4465H32.8447C33.5656 29.4465 34.5998 29.276 35.3268 28.4331C36.1191 27.5145 36.0586 26.3886 35.8095 25.5795L35.7646 25.4339L35.6969 25.2975ZM27.1181 25.4559C26.7328 25.0289 26.2682 24.5226 25.6812 23.9356L25.6764 23.9308C23.6422 21.9697 22.6917 21.6279 22.0196 21.6279C21.6622 21.6279 21.2667 21.668 21.01 21.9878C20.8889 22.1387 20.8252 22.3207 20.7895 22.5105C20.7539 22.7 20.7416 22.9224 20.7416 23.1758V26.2532C20.7416 26.6354 20.6787 26.7959 20.5019 26.9137C20.2665 27.0706 19.7632 27.1978 18.685 27.1988C16.6385 27.0593 14.6541 26.4365 12.8947 25.3816C11.1317 24.3245 9.64511 22.8638 8.55728 21.1196L8.54545 21.1006L8.53143 21.0832C5.91954 17.8322 4.09952 14.0186 3.21493 9.94365C3.21972 9.74721 3.26228 9.63067 3.33124 9.55793C3.40229 9.48298 3.57446 9.37851 4.01229 9.37851H7.4322C7.81264 9.37851 8.00953 9.46127 8.15123 9.58991C8.31188 9.73575 8.45121 9.98341 8.62049 10.4256C9.45991 12.8946 10.5951 15.2035 11.67 16.9013C12.2073 17.7498 12.736 18.4561 13.2124 18.9553C13.4502 19.2044 13.6835 19.4109 13.906 19.5577C14.1215 19.6998 14.3657 19.8118 14.6168 19.8118C14.7494 19.8118 14.9044 19.7982 15.0537 19.7321C15.2142 19.661 15.3388 19.5425 15.4268 19.3838C15.5825 19.103 15.6252 18.687 15.6252 18.1421V13.0965L15.6244 13.0846C15.5467 11.8571 15.1761 11.1667 14.8152 10.6758C14.7361 10.5682 14.6581 10.471 14.5899 10.386L14.5712 10.3627C14.4962 10.2692 14.4366 10.1937 14.3876 10.1219C14.2978 9.99036 14.263 9.89863 14.2602 9.80034C14.2719 9.68367 14.3269 9.57541 14.4146 9.49708C14.5056 9.41578 14.6248 9.37346 14.7467 9.37851H20.1384C20.4475 9.37851 20.5516 9.45393 20.604 9.52302C20.678 9.62056 20.7416 9.82339 20.7416 10.249V17.042C20.7416 17.8489 21.1135 18.3951 21.6537 18.3951C22.2752 18.3951 22.7233 18.0179 23.5069 17.2344L23.5199 17.2213L23.5317 17.207C25.2878 15.0653 26.7232 12.6795 27.7915 10.1242L27.7983 10.105C27.8787 9.8792 28.0307 9.68588 28.2311 9.55455C28.4316 9.42322 28.6696 9.36108 28.9086 9.37762L28.9216 9.37851H32.3568C32.8253 9.37851 32.9794 9.49775 33.0292 9.56825C33.0823 9.64328 33.1191 9.80406 33.029 10.1194C31.7974 12.874 30.2743 15.4887 28.4865 17.9195L28.4753 17.9368C28.3016 18.2022 28.1113 18.4958 28.0837 18.8331C28.0541 19.1952 28.2109 19.5244 28.485 19.8772C28.6848 20.1727 29.0969 20.576 29.5149 20.9852L29.5543 21.0237C29.9926 21.4527 30.4674 21.9174 30.8486 22.3673L30.8588 22.3793L30.8699 22.3904C32.0061 23.5238 32.9509 24.8339 33.6675 26.2698C33.7819 26.6607 33.7118 26.8605 33.623 26.9635C33.5189 27.0842 33.2859 27.1965 32.8447 27.1965H29.4224C29.1552 27.1965 28.9489 27.1438 28.7518 27.0397C28.5465 26.9313 28.3352 26.7587 28.0704 26.4925C27.8571 26.278 27.6239 26.0186 27.3396 25.7021C27.2691 25.6237 27.1954 25.5416 27.1181 25.4559Z" stroke="#292C31" stroke-width="0.8" mask="url(#path-1-outside-1_901_631)"/>
</svg>
