<svg width="37" height="36" viewBox="0 0 37 36" fill="none" xmlns="http://www.w3.org/2000/svg">
<mask id="path-1-outside-1_415_3926" maskUnits="userSpaceOnUse" x="0.375" y="6.125" width="37" height="24" fill="black">
<rect fill="white" x="0.375" y="6.125" width="37" height="24"/>
<path fill-rule="evenodd" clip-rule="evenodd" d="M36.1074 25.2975C35.2916 23.6542 34.2166 22.1532 32.9238 20.8519C32.4838 20.3405 31.9679 19.8357 31.5652 19.4417L31.5089 19.3867C31.3013 19.1834 31.1296 19.0147 30.9891 18.8693C32.7569 16.4111 34.2699 13.7789 35.5045 11.0133L35.5543 10.9018L35.5892 10.7846C35.7515 10.2403 35.9383 9.2052 35.2773 8.26976C34.594 7.30288 33.4999 7.12851 32.7673 7.12851H29.3967C28.694 7.0963 27.9982 7.28626 27.4087 7.67247C26.8147 8.06159 26.3603 8.62916 26.1103 9.29265C25.3844 11.0217 24.4761 12.6663 23.4021 14.199V10.249C23.4021 9.73845 23.354 8.88434 22.8073 8.16344C22.1527 7.30028 21.2061 7.12851 20.549 7.12851H15.2006C14.5116 7.11258 13.8414 7.35896 13.3264 7.81888C12.799 8.28989 12.4758 8.94781 12.4253 9.65314L12.4205 9.71996V9.78695C12.4205 10.5152 12.7091 11.0523 12.9396 11.3902C13.0428 11.5414 13.1532 11.6791 13.223 11.7661L13.2391 11.7861C13.3134 11.8788 13.3631 11.9407 13.4129 12.0085C13.5439 12.1867 13.7324 12.4615 13.7857 13.1726V15.382C12.8637 13.8663 11.891 11.8493 11.1591 9.69516L11.1479 9.6621L11.1355 9.62948C10.953 9.15155 10.6603 8.45615 10.0741 7.924C9.38932 7.30232 8.57934 7.12851 7.84273 7.12851H4.42281C3.67759 7.12851 2.7792 7.30285 2.10886 8.00999C1.44966 8.70537 1.375 9.5386 1.375 9.98164V10.1813L1.41706 10.3765C2.36432 14.7732 4.31614 18.8905 7.11919 22.4065C8.39002 24.4106 10.112 26.0904 12.1482 27.3113C14.2169 28.5517 16.5506 29.2828 18.9572 29.4446L19.02 29.4488H19.0829C20.1717 29.4488 21.3067 29.3548 22.1602 28.7861C23.3116 28.0188 23.4021 26.8404 23.4021 26.2532V24.5463C23.6975 24.7852 24.0642 25.1067 24.5129 25.5388C25.0555 26.0819 25.4874 26.5524 25.858 26.9631L26.0557 27.183L26.0569 27.1842C26.3446 27.5046 26.6278 27.82 26.8857 28.0792C27.2098 28.4051 27.6094 28.7641 28.1117 29.0294C28.6556 29.3166 29.2266 29.4465 29.8329 29.4465H33.2552C33.9762 29.4465 35.0103 29.276 35.7373 28.4331C36.5296 27.5145 36.4691 26.3886 36.22 25.5795L36.1752 25.4339L36.1074 25.2975ZM27.5286 25.4559C27.1433 25.0289 26.6788 24.5226 26.0918 23.9356L26.0869 23.9308C24.0527 21.9697 23.1023 21.6279 22.4301 21.6279C22.0727 21.6279 21.6772 21.668 21.4205 21.9878C21.2994 22.1387 21.2357 22.3207 21.2 22.5105C21.1644 22.7 21.1521 22.9224 21.1521 23.1758V26.2532C21.1521 26.6354 21.0893 26.7959 20.9125 26.9137C20.677 27.0706 20.1737 27.1978 19.0955 27.1988C17.049 27.0593 15.0646 26.4365 13.3052 25.3816C11.5423 24.3245 10.0556 22.8638 8.96781 21.1196L8.95597 21.1006L8.94196 21.0832C6.33006 17.8322 4.51004 14.0186 3.62545 9.94365C3.63025 9.74721 3.67281 9.63067 3.74176 9.55793C3.81281 9.48298 3.98498 9.37851 4.42281 9.37851H7.84273C8.22317 9.37851 8.42005 9.46127 8.56175 9.58991C8.7224 9.73575 8.86173 9.98341 9.03101 10.4256C9.87043 12.8946 11.0056 15.2035 12.0805 16.9013C12.6178 17.7498 13.1465 18.4561 13.6229 18.9553C13.8608 19.2044 14.094 19.4109 14.3165 19.5577C14.532 19.6998 14.7762 19.8118 15.0274 19.8118C15.1599 19.8118 15.3149 19.7982 15.4642 19.7321C15.6247 19.661 15.7494 19.5425 15.8374 19.3838C15.993 19.103 16.0357 18.687 16.0357 18.1421V13.0965L16.0349 13.0846C15.9572 11.8571 15.5866 11.1667 15.2257 10.6758C15.1466 10.5682 15.0686 10.471 15.0004 10.386L14.9817 10.3627C14.9068 10.2692 14.8471 10.1937 14.7981 10.1219C14.7084 9.99036 14.6736 9.89863 14.6707 9.80034C14.6824 9.68367 14.7374 9.57541 14.8251 9.49708C14.9162 9.41578 15.0353 9.37346 15.1572 9.37851H20.549C20.858 9.37851 20.9621 9.45393 21.0145 9.52302C21.0885 9.62056 21.1521 9.82339 21.1521 10.249V17.042C21.1521 17.8489 21.524 18.3951 22.0642 18.3951C22.6858 18.3951 23.1339 18.0179 23.9174 17.2344L23.9305 17.2213L23.9422 17.207C25.6984 15.0653 27.1337 12.6795 28.2021 10.1242L28.2089 10.105C28.2892 9.8792 28.4412 9.68588 28.6417 9.55455C28.8421 9.42322 29.0801 9.36108 29.3192 9.37762L29.3321 9.37851H32.7673C33.2358 9.37851 33.3899 9.49775 33.4398 9.56825C33.4928 9.64328 33.5297 9.80406 33.4395 10.1194C32.2079 12.874 30.6848 15.4887 28.8971 17.9195L28.8858 17.9368C28.7122 18.2022 28.5218 18.4958 28.4942 18.8331C28.4646 19.1952 28.6214 19.5244 28.8956 19.8772C29.0953 20.1727 29.5074 20.576 29.9254 20.9852L29.9648 21.0237C30.4031 21.4527 30.8779 21.9174 31.2591 22.3673L31.2693 22.3793L31.2804 22.3904C32.4166 23.5238 33.3614 24.8339 34.0781 26.2698C34.1924 26.6607 34.1224 26.8605 34.0335 26.9635C33.9294 27.0842 33.6965 27.1965 33.2552 27.1965H29.8329C29.5658 27.1965 29.3594 27.1438 29.1624 27.0397C28.957 26.9313 28.7457 26.7587 28.4809 26.4925C28.2676 26.278 28.0345 26.0186 27.7502 25.7021C27.6797 25.6237 27.6059 25.5416 27.5286 25.4559Z"/>
</mask>
<path fill-rule="evenodd" clip-rule="evenodd" d="M36.1074 25.2975C35.2916 23.6542 34.2166 22.1532 32.9238 20.8519C32.4838 20.3405 31.9679 19.8357 31.5652 19.4417L31.5089 19.3867C31.3013 19.1834 31.1296 19.0147 30.9891 18.8693C32.7569 16.4111 34.2699 13.7789 35.5045 11.0133L35.5543 10.9018L35.5892 10.7846C35.7515 10.2403 35.9383 9.2052 35.2773 8.26976C34.594 7.30288 33.4999 7.12851 32.7673 7.12851H29.3967C28.694 7.0963 27.9982 7.28626 27.4087 7.67247C26.8147 8.06159 26.3603 8.62916 26.1103 9.29265C25.3844 11.0217 24.4761 12.6663 23.4021 14.199V10.249C23.4021 9.73845 23.354 8.88434 22.8073 8.16344C22.1527 7.30028 21.2061 7.12851 20.549 7.12851H15.2006C14.5116 7.11258 13.8414 7.35896 13.3264 7.81888C12.799 8.28989 12.4758 8.94781 12.4253 9.65314L12.4205 9.71996V9.78695C12.4205 10.5152 12.7091 11.0523 12.9396 11.3902C13.0428 11.5414 13.1532 11.6791 13.223 11.7661L13.2391 11.7861C13.3134 11.8788 13.3631 11.9407 13.4129 12.0085C13.5439 12.1867 13.7324 12.4615 13.7857 13.1726V15.382C12.8637 13.8663 11.891 11.8493 11.1591 9.69516L11.1479 9.6621L11.1355 9.62948C10.953 9.15155 10.6603 8.45615 10.0741 7.924C9.38932 7.30232 8.57934 7.12851 7.84273 7.12851H4.42281C3.67759 7.12851 2.7792 7.30285 2.10886 8.00999C1.44966 8.70537 1.375 9.5386 1.375 9.98164V10.1813L1.41706 10.3765C2.36432 14.7732 4.31614 18.8905 7.11919 22.4065C8.39002 24.4106 10.112 26.0904 12.1482 27.3113C14.2169 28.5517 16.5506 29.2828 18.9572 29.4446L19.02 29.4488H19.0829C20.1717 29.4488 21.3067 29.3548 22.1602 28.7861C23.3116 28.0188 23.4021 26.8404 23.4021 26.2532V24.5463C23.6975 24.7852 24.0642 25.1067 24.5129 25.5388C25.0555 26.0819 25.4874 26.5524 25.858 26.9631L26.0557 27.183L26.0569 27.1842C26.3446 27.5046 26.6278 27.82 26.8857 28.0792C27.2098 28.4051 27.6094 28.7641 28.1117 29.0294C28.6556 29.3166 29.2266 29.4465 29.8329 29.4465H33.2552C33.9762 29.4465 35.0103 29.276 35.7373 28.4331C36.5296 27.5145 36.4691 26.3886 36.22 25.5795L36.1752 25.4339L36.1074 25.2975ZM27.5286 25.4559C27.1433 25.0289 26.6788 24.5226 26.0918 23.9356L26.0869 23.9308C24.0527 21.9697 23.1023 21.6279 22.4301 21.6279C22.0727 21.6279 21.6772 21.668 21.4205 21.9878C21.2994 22.1387 21.2357 22.3207 21.2 22.5105C21.1644 22.7 21.1521 22.9224 21.1521 23.1758V26.2532C21.1521 26.6354 21.0893 26.7959 20.9125 26.9137C20.677 27.0706 20.1737 27.1978 19.0955 27.1988C17.049 27.0593 15.0646 26.4365 13.3052 25.3816C11.5423 24.3245 10.0556 22.8638 8.96781 21.1196L8.95597 21.1006L8.94196 21.0832C6.33006 17.8322 4.51004 14.0186 3.62545 9.94365C3.63025 9.74721 3.67281 9.63067 3.74176 9.55793C3.81281 9.48298 3.98498 9.37851 4.42281 9.37851H7.84273C8.22317 9.37851 8.42005 9.46127 8.56175 9.58991C8.7224 9.73575 8.86173 9.98341 9.03101 10.4256C9.87043 12.8946 11.0056 15.2035 12.0805 16.9013C12.6178 17.7498 13.1465 18.4561 13.6229 18.9553C13.8608 19.2044 14.094 19.4109 14.3165 19.5577C14.532 19.6998 14.7762 19.8118 15.0274 19.8118C15.1599 19.8118 15.3149 19.7982 15.4642 19.7321C15.6247 19.661 15.7494 19.5425 15.8374 19.3838C15.993 19.103 16.0357 18.687 16.0357 18.1421V13.0965L16.0349 13.0846C15.9572 11.8571 15.5866 11.1667 15.2257 10.6758C15.1466 10.5682 15.0686 10.471 15.0004 10.386L14.9817 10.3627C14.9068 10.2692 14.8471 10.1937 14.7981 10.1219C14.7084 9.99036 14.6736 9.89863 14.6707 9.80034C14.6824 9.68367 14.7374 9.57541 14.8251 9.49708C14.9162 9.41578 15.0353 9.37346 15.1572 9.37851H20.549C20.858 9.37851 20.9621 9.45393 21.0145 9.52302C21.0885 9.62056 21.1521 9.82339 21.1521 10.249V17.042C21.1521 17.8489 21.524 18.3951 22.0642 18.3951C22.6858 18.3951 23.1339 18.0179 23.9174 17.2344L23.9305 17.2213L23.9422 17.207C25.6984 15.0653 27.1337 12.6795 28.2021 10.1242L28.2089 10.105C28.2892 9.8792 28.4412 9.68588 28.6417 9.55455C28.8421 9.42322 29.0801 9.36108 29.3192 9.37762L29.3321 9.37851H32.7673C33.2358 9.37851 33.3899 9.49775 33.4398 9.56825C33.4928 9.64328 33.5297 9.80406 33.4395 10.1194C32.2079 12.874 30.6848 15.4887 28.8971 17.9195L28.8858 17.9368C28.7122 18.2022 28.5218 18.4958 28.4942 18.8331C28.4646 19.1952 28.6214 19.5244 28.8956 19.8772C29.0953 20.1727 29.5074 20.576 29.9254 20.9852L29.9648 21.0237C30.4031 21.4527 30.8779 21.9174 31.2591 22.3673L31.2693 22.3793L31.2804 22.3904C32.4166 23.5238 33.3614 24.8339 34.0781 26.2698C34.1924 26.6607 34.1224 26.8605 34.0335 26.9635C33.9294 27.0842 33.6965 27.1965 33.2552 27.1965H29.8329C29.5658 27.1965 29.3594 27.1438 29.1624 27.0397C28.957 26.9313 28.7457 26.7587 28.4809 26.4925C28.2676 26.278 28.0345 26.0186 27.7502 25.7021C27.6797 25.6237 27.6059 25.5416 27.5286 25.4559Z" fill="#EFEFEF" fill-opacity="0.5"/>
<path fill-rule="evenodd" clip-rule="evenodd" d="M36.1074 25.2975C35.2916 23.6542 34.2166 22.1532 32.9238 20.8519C32.4838 20.3405 31.9679 19.8357 31.5652 19.4417L31.5089 19.3867C31.3013 19.1834 31.1296 19.0147 30.9891 18.8693C32.7569 16.4111 34.2699 13.7789 35.5045 11.0133L35.5543 10.9018L35.5892 10.7846C35.7515 10.2403 35.9383 9.2052 35.2773 8.26976C34.594 7.30288 33.4999 7.12851 32.7673 7.12851H29.3967C28.694 7.0963 27.9982 7.28626 27.4087 7.67247C26.8147 8.06159 26.3603 8.62916 26.1103 9.29265C25.3844 11.0217 24.4761 12.6663 23.4021 14.199V10.249C23.4021 9.73845 23.354 8.88434 22.8073 8.16344C22.1527 7.30028 21.2061 7.12851 20.549 7.12851H15.2006C14.5116 7.11258 13.8414 7.35896 13.3264 7.81888C12.799 8.28989 12.4758 8.94781 12.4253 9.65314L12.4205 9.71996V9.78695C12.4205 10.5152 12.7091 11.0523 12.9396 11.3902C13.0428 11.5414 13.1532 11.6791 13.223 11.7661L13.2391 11.7861C13.3134 11.8788 13.3631 11.9407 13.4129 12.0085C13.5439 12.1867 13.7324 12.4615 13.7857 13.1726V15.382C12.8637 13.8663 11.891 11.8493 11.1591 9.69516L11.1479 9.6621L11.1355 9.62948C10.953 9.15155 10.6603 8.45615 10.0741 7.924C9.38932 7.30232 8.57934 7.12851 7.84273 7.12851H4.42281C3.67759 7.12851 2.7792 7.30285 2.10886 8.00999C1.44966 8.70537 1.375 9.5386 1.375 9.98164V10.1813L1.41706 10.3765C2.36432 14.7732 4.31614 18.8905 7.11919 22.4065C8.39002 24.4106 10.112 26.0904 12.1482 27.3113C14.2169 28.5517 16.5506 29.2828 18.9572 29.4446L19.02 29.4488H19.0829C20.1717 29.4488 21.3067 29.3548 22.1602 28.7861C23.3116 28.0188 23.4021 26.8404 23.4021 26.2532V24.5463C23.6975 24.7852 24.0642 25.1067 24.5129 25.5388C25.0555 26.0819 25.4874 26.5524 25.858 26.9631L26.0557 27.183L26.0569 27.1842C26.3446 27.5046 26.6278 27.82 26.8857 28.0792C27.2098 28.4051 27.6094 28.7641 28.1117 29.0294C28.6556 29.3166 29.2266 29.4465 29.8329 29.4465H33.2552C33.9762 29.4465 35.0103 29.276 35.7373 28.4331C36.5296 27.5145 36.4691 26.3886 36.22 25.5795L36.1752 25.4339L36.1074 25.2975ZM27.5286 25.4559C27.1433 25.0289 26.6788 24.5226 26.0918 23.9356L26.0869 23.9308C24.0527 21.9697 23.1023 21.6279 22.4301 21.6279C22.0727 21.6279 21.6772 21.668 21.4205 21.9878C21.2994 22.1387 21.2357 22.3207 21.2 22.5105C21.1644 22.7 21.1521 22.9224 21.1521 23.1758V26.2532C21.1521 26.6354 21.0893 26.7959 20.9125 26.9137C20.677 27.0706 20.1737 27.1978 19.0955 27.1988C17.049 27.0593 15.0646 26.4365 13.3052 25.3816C11.5423 24.3245 10.0556 22.8638 8.96781 21.1196L8.95597 21.1006L8.94196 21.0832C6.33006 17.8322 4.51004 14.0186 3.62545 9.94365C3.63025 9.74721 3.67281 9.63067 3.74176 9.55793C3.81281 9.48298 3.98498 9.37851 4.42281 9.37851H7.84273C8.22317 9.37851 8.42005 9.46127 8.56175 9.58991C8.7224 9.73575 8.86173 9.98341 9.03101 10.4256C9.87043 12.8946 11.0056 15.2035 12.0805 16.9013C12.6178 17.7498 13.1465 18.4561 13.6229 18.9553C13.8608 19.2044 14.094 19.4109 14.3165 19.5577C14.532 19.6998 14.7762 19.8118 15.0274 19.8118C15.1599 19.8118 15.3149 19.7982 15.4642 19.7321C15.6247 19.661 15.7494 19.5425 15.8374 19.3838C15.993 19.103 16.0357 18.687 16.0357 18.1421V13.0965L16.0349 13.0846C15.9572 11.8571 15.5866 11.1667 15.2257 10.6758C15.1466 10.5682 15.0686 10.471 15.0004 10.386L14.9817 10.3627C14.9068 10.2692 14.8471 10.1937 14.7981 10.1219C14.7084 9.99036 14.6736 9.89863 14.6707 9.80034C14.6824 9.68367 14.7374 9.57541 14.8251 9.49708C14.9162 9.41578 15.0353 9.37346 15.1572 9.37851H20.549C20.858 9.37851 20.9621 9.45393 21.0145 9.52302C21.0885 9.62056 21.1521 9.82339 21.1521 10.249V17.042C21.1521 17.8489 21.524 18.3951 22.0642 18.3951C22.6858 18.3951 23.1339 18.0179 23.9174 17.2344L23.9305 17.2213L23.9422 17.207C25.6984 15.0653 27.1337 12.6795 28.2021 10.1242L28.2089 10.105C28.2892 9.8792 28.4412 9.68588 28.6417 9.55455C28.8421 9.42322 29.0801 9.36108 29.3192 9.37762L29.3321 9.37851H32.7673C33.2358 9.37851 33.3899 9.49775 33.4398 9.56825C33.4928 9.64328 33.5297 9.80406 33.4395 10.1194C32.2079 12.874 30.6848 15.4887 28.8971 17.9195L28.8858 17.9368C28.7122 18.2022 28.5218 18.4958 28.4942 18.8331C28.4646 19.1952 28.6214 19.5244 28.8956 19.8772C29.0953 20.1727 29.5074 20.576 29.9254 20.9852L29.9648 21.0237C30.4031 21.4527 30.8779 21.9174 31.2591 22.3673L31.2693 22.3793L31.2804 22.3904C32.4166 23.5238 33.3614 24.8339 34.0781 26.2698C34.1924 26.6607 34.1224 26.8605 34.0335 26.9635C33.9294 27.0842 33.6965 27.1965 33.2552 27.1965H29.8329C29.5658 27.1965 29.3594 27.1438 29.1624 27.0397C28.957 26.9313 28.7457 26.7587 28.4809 26.4925C28.2676 26.278 28.0345 26.0186 27.7502 25.7021C27.6797 25.6237 27.6059 25.5416 27.5286 25.4559Z" stroke="#EFEFEF" stroke-opacity="0.5" stroke-width="0.8" mask="url(#path-1-outside-1_415_3926)"/>
</svg>
